<svg width="40" height="40" viewBox="0 0 40 40" fill="none" xmlns="http://www.w3.org/2000/svg">
<path d="M19.9998 28.3334C18.8471 28.3334 17.7637 28.1146 16.7498 27.6771C15.7359 27.2396 14.854 26.6459 14.104 25.8959C13.354 25.1459 12.7603 24.2639 12.3228 23.25C11.8853 22.2361 11.6665 21.1528 11.6665 20C11.6665 18.8472 11.8853 17.7639 12.3228 16.75C12.7603 15.7361 13.354 14.8542 14.104 14.1042C14.854 13.3542 15.7359 12.7604 16.7498 12.3229C17.7637 11.8854 18.8471 11.6667 19.9998 11.6667C21.1526 11.6667 22.2359 11.8854 23.2498 12.3229C24.2637 12.7604 25.1457 13.3542 25.8957 14.1042C26.6457 14.8542 27.2394 15.7361 27.6769 16.75C28.1144 17.7639 28.3332 18.8472 28.3332 20C28.3332 21.1528 28.1144 22.2361 27.6769 23.25C27.2394 24.2639 26.6457 25.1459 25.8957 25.8959C25.1457 26.6459 24.2637 27.2396 23.2498 27.6771C22.2359 28.1146 21.1526 28.3334 19.9998 28.3334ZM19.9998 26.6667C21.8609 26.6667 23.4373 26.0209 24.729 24.7292C26.0207 23.4375 26.6665 21.8611 26.6665 20C26.6665 18.1389 26.0207 16.5625 24.729 15.2709C23.4373 13.9792 21.8609 13.3334 19.9998 13.3334C18.1387 13.3334 16.5623 13.9792 15.2707 15.2709C13.979 16.5625 13.3332 18.1389 13.3332 20C13.3332 21.8611 13.979 23.4375 15.2707 24.7292C16.5623 26.0209 18.1387 26.6667 19.9998 26.6667Z" fill="#B6009C"/>
</svg>
