<svg width="40" height="40" viewBox="0 0 40 40" fill="none" xmlns="http://www.w3.org/2000/svg">
<path d="M20 24.1666C21.1527 24.1666 22.1354 23.7604 22.9479 22.9479C23.7604 22.1354 24.1666 21.1527 24.1666 20C24.1666 18.8472 23.7604 17.8645 22.9479 17.052C22.1354 16.2395 21.1527 15.8333 20 15.8333C18.8472 15.8333 17.8645 16.2395 17.052 17.052C16.2395 17.8645 15.8333 18.8472 15.8333 20C15.8333 21.1527 16.2395 22.1354 17.052 22.9479C17.8645 23.7604 18.8472 24.1666 20 24.1666ZM20 28.3333C18.8472 28.3333 17.7638 28.1145 16.75 27.677C15.7361 27.2395 14.8541 26.6458 14.1041 25.8958C13.3541 25.1458 12.7604 24.2638 12.3229 23.25C11.8854 22.2361 11.6666 21.1527 11.6666 20C11.6666 18.8472 11.8854 17.7638 12.3229 16.75C12.7604 15.7361 13.3541 14.8541 14.1041 14.1041C14.8541 13.3541 15.7361 12.7604 16.75 12.3229C17.7638 11.8854 18.8472 11.6666 20 11.6666C21.1527 11.6666 22.2361 11.8854 23.25 12.3229C24.2638 12.7604 25.1458 13.3541 25.8958 14.1041C26.6458 14.8541 27.2395 15.7361 27.677 16.75C28.1145 17.7638 28.3333 18.8472 28.3333 20C28.3333 21.1527 28.1145 22.2361 27.677 23.25C27.2395 24.2638 26.6458 25.1458 25.8958 25.8958C25.1458 26.6458 24.2638 27.2395 23.25 27.677C22.2361 28.1145 21.1527 28.3333 20 28.3333ZM20 26.6666C21.8611 26.6666 23.4375 26.0208 24.7291 24.7291C26.0208 23.4375 26.6666 21.8611 26.6666 20C26.6666 18.1388 26.0208 16.5625 24.7291 15.2708C23.4375 13.9791 21.8611 13.3333 20 13.3333C18.1388 13.3333 16.5625 13.9791 15.2708 15.2708C13.9791 16.5625 13.3333 18.1388 13.3333 20C13.3333 21.8611 13.9791 23.4375 15.2708 24.7291C16.5625 26.0208 18.1388 26.6666 20 26.6666Z" fill="#B6009C"/>
</svg>
